# Blender v3.4.1 OBJ File: 'Pollo.blend'
# www.blender.org
mtllib Pollo.mtl
o Muestra_1_Cube.011
v 2.801467 11.920322 0.007054
v 2.801467 14.314938 0.007054
v 2.801467 11.920322 -2.064805
v 2.801467 14.314938 -2.064805
v 5.227910 11.920322 0.007054
v 5.227910 14.314938 0.007054
v 5.227910 11.920322 -2.064805
v 5.227910 14.314938 -2.064805
v 5.417339 14.089491 -0.557024
v 5.417339 16.161350 -0.557024
v 5.417339 14.089491 -2.628884
v 5.417339 16.161350 -2.628884
v 2.606397 14.089491 -0.557024
v 2.606397 16.161350 -0.557024
v 2.606397 14.089491 -2.628884
v 2.606397 16.161350 -2.628884
v 7.140005 7.539683 10.975724
v 7.140005 4.392252 10.975724
v 7.140005 7.539683 9.455873
v 7.140005 4.392252 9.455873
v 1.291270 7.539683 10.975724
v 1.291270 4.392252 10.975724
v 1.291270 7.539683 9.455873
v 1.291270 4.392252 9.455873
v -0.381179 15.838005 1.851527
v -0.381179 17.005249 1.851527
v -0.381179 15.838005 0.684283
v -0.381179 17.005249 0.684283
v 0.786065 15.838005 1.851527
v 0.786065 17.005249 1.851527
v 0.786065 15.838005 0.684283
v 0.786065 17.005249 0.684283
v -0.294726 8.259419 9.718947
v -0.294726 8.223052 4.293002
v -0.294726 3.718325 9.744106
v -0.294726 3.681957 4.318161
v 8.569519 8.259419 9.718947
v 8.569519 8.223052 4.293002
v 8.569519 3.718325 9.744106
v 8.569519 3.681957 4.318161
v -0.293329 3.706247 5.403807
v -0.293329 18.938980 5.403807
v -0.293329 3.706247 -0.755844
v -0.293329 18.938980 -0.755843
v 8.577253 3.706247 5.403807
v 8.577253 18.938980 5.403807
v 8.577253 3.706247 -0.755844
v 8.577253 18.938980 -0.755843
v 1.030081 0.030698 0.027088
v 1.030081 0.030698 1.065774
v 1.030081 1.090602 0.027088
v 1.030081 1.090601 1.065774
v -0.034694 0.030698 0.027088
v -0.034694 0.030698 1.065774
v -0.034694 1.090602 0.027088
v -0.034694 1.090601 1.065774
v 3.358255 0.030698 0.027088
v 3.358255 0.030698 1.065774
v 3.358255 1.090602 0.027088
v 3.358255 1.090601 1.065774
v 2.293479 0.030698 0.027088
v 2.293479 0.030698 1.065774
v 2.293479 1.090602 0.027088
v 2.293479 1.090601 1.065774
v 7.637226 0.030698 0.027088
v 7.637226 0.030698 1.065774
v 7.637226 1.090602 0.027088
v 7.637226 1.090601 1.065774
v 6.572449 0.030698 0.027088
v 6.572449 0.030698 1.065774
v 6.572449 1.090602 0.027088
v 6.572449 1.090601 1.065774
v 5.308774 0.030698 0.027088
v 5.308774 0.030698 1.065774
v 5.308774 1.090602 0.027088
v 5.308774 1.090601 1.065774
v 4.243998 0.030698 0.027088
v 4.243998 0.030698 1.065774
v 4.243998 1.090602 0.027088
v 4.243998 1.090601 1.065774
v 2.276239 0.194712 2.270629
v 2.276239 3.904796 2.270628
v 2.276239 0.194712 3.464550
v 2.276239 3.904797 3.464549
v 1.082318 0.194712 2.270629
v 1.082318 3.904796 2.270628
v 1.082318 0.194712 3.464550
v 1.082318 3.904797 3.464549
v 3.358854 1.090641 1.065774
v 3.358854 0.032848 1.065774
v 3.358854 1.090641 4.552493
v 3.358854 0.032848 4.552493
v -0.034319 1.090641 1.065774
v -0.034319 0.032848 1.065774
v -0.034319 1.090641 4.552493
v -0.034319 0.032848 4.552493
v 6.554242 0.194712 2.270629
v 6.554242 3.904796 2.270628
v 6.554242 0.194712 3.464550
v 6.554242 3.904797 3.464549
v 5.360320 0.194712 2.270629
v 5.360320 3.904796 2.270628
v 5.360320 0.194712 3.464550
v 5.360320 3.904797 3.464549
v 7.636857 1.090641 1.065774
v 7.636857 0.032848 1.065774
v 7.636857 1.090641 4.552493
v 7.636857 0.032848 4.552493
v 4.243684 1.090641 1.065774
v 4.243684 0.032848 1.065774
v 4.243684 1.090641 4.552493
v 4.243684 0.032848 4.552493
v -1.729060 7.539683 5.906922
v -1.729060 4.392252 5.906922
v -1.729060 7.539683 0.276336
v -1.729060 4.392252 0.276336
v 0.046100 7.539683 5.906922
v 0.046100 4.392252 5.906922
v 0.046100 7.539683 0.276336
v 0.046100 4.392252 0.276336
v 8.164507 7.539683 5.906922
v 8.164507 4.392252 5.906922
v 8.164507 7.539683 0.276336
v 8.164507 4.392252 0.276336
v 9.939665 7.539683 5.906922
v 9.939665 4.392252 5.906922
v 9.939665 7.539683 0.276336
v 9.939665 4.392252 0.276336
v 2.639858 17.859629 0.431627
v 2.639858 20.074886 0.431627
v 5.502926 17.859629 0.470359
v 5.502926 20.074886 0.470359
v 2.593728 17.859629 3.841645
v 2.593728 20.074886 3.841645
v 5.456796 17.859629 3.880376
v 5.456796 20.074886 3.880376
v 7.471639 15.838005 1.851527
v 7.471639 17.005249 1.851527
v 7.471639 15.838005 0.684283
v 7.471639 17.005249 0.684283
v 8.638883 15.838005 1.851527
v 8.638883 17.005249 1.851527
v 8.638883 15.838005 0.684283
v 8.638883 17.005249 0.684283
vt 0.375000 0.000000
vt 0.625000 0.000000
vt 0.625000 0.250000
vt 0.375000 0.250000
vt 0.625000 0.500000
vt 0.375000 0.500000
vt 0.625000 0.750000
vt 0.375000 0.750000
vt 0.625000 1.000000
vt 0.375000 1.000000
vt 0.125000 0.500000
vt 0.125000 0.750000
vt 0.875000 0.500000
vt 0.875000 0.750000
vt 0.375000 0.000000
vt 0.625000 0.000000
vt 0.625000 0.250000
vt 0.375000 0.250000
vt 0.625000 0.500000
vt 0.375000 0.500000
vt 0.625000 0.750000
vt 0.375000 0.750000
vt 0.625000 1.000000
vt 0.375000 1.000000
vt 0.125000 0.500000
vt 0.125000 0.750000
vt 0.875000 0.500000
vt 0.875000 0.750000
vt 0.375000 0.000000
vt 0.625000 0.000000
vt 0.625000 0.250000
vt 0.375000 0.250000
vt 0.625000 0.500000
vt 0.375000 0.500000
vt 0.625000 0.750000
vt 0.375000 0.750000
vt 0.625000 1.000000
vt 0.375000 1.000000
vt 0.125000 0.500000
vt 0.125000 0.750000
vt 0.875000 0.500000
vt 0.875000 0.750000
vt 0.375000 0.000000
vt 0.625000 0.000000
vt 0.625000 0.250000
vt 0.375000 0.250000
vt 0.625000 0.500000
vt 0.375000 0.500000
vt 0.625000 0.750000
vt 0.375000 0.750000
vt 0.625000 1.000000
vt 0.375000 1.000000
vt 0.125000 0.500000
vt 0.125000 0.750000
vt 0.875000 0.500000
vt 0.875000 0.750000
vt 0.375000 0.000000
vt 0.625000 0.000000
vt 0.625000 0.250000
vt 0.375000 0.250000
vt 0.625000 0.500000
vt 0.375000 0.500000
vt 0.625000 0.750000
vt 0.375000 0.750000
vt 0.625000 1.000000
vt 0.375000 1.000000
vt 0.125000 0.500000
vt 0.125000 0.750000
vt 0.875000 0.500000
vt 0.875000 0.750000
vt 0.375000 0.000000
vt 0.625000 0.000000
vt 0.625000 0.250000
vt 0.375000 0.250000
vt 0.625000 0.500000
vt 0.375000 0.500000
vt 0.625000 0.750000
vt 0.375000 0.750000
vt 0.625000 1.000000
vt 0.375000 1.000000
vt 0.125000 0.500000
vt 0.125000 0.750000
vt 0.875000 0.500000
vt 0.875000 0.750000
vt 0.625000 0.500000
vt 0.875000 0.500000
vt 0.875000 0.750000
vt 0.625000 0.750000
vt 0.125000 0.500000
vt 0.375000 0.500000
vt 0.375000 0.750000
vt 0.125000 0.750000
vt 0.625000 1.000000
vt 0.375000 1.000000
vt 0.375000 0.250000
vt 0.625000 0.250000
vt 0.375000 0.000000
vt 0.625000 0.000000
vt 0.625000 0.500000
vt 0.875000 0.500000
vt 0.875000 0.750000
vt 0.625000 0.750000
vt 0.125000 0.500000
vt 0.375000 0.500000
vt 0.375000 0.750000
vt 0.125000 0.750000
vt 0.625000 1.000000
vt 0.375000 1.000000
vt 0.375000 0.250000
vt 0.625000 0.250000
vt 0.375000 0.000000
vt 0.625000 0.000000
vt 0.625000 0.500000
vt 0.875000 0.500000
vt 0.875000 0.750000
vt 0.625000 0.750000
vt 0.125000 0.500000
vt 0.375000 0.500000
vt 0.375000 0.750000
vt 0.125000 0.750000
vt 0.625000 1.000000
vt 0.375000 1.000000
vt 0.375000 0.250000
vt 0.625000 0.250000
vt 0.375000 0.000000
vt 0.625000 0.000000
vt 0.625000 0.500000
vt 0.875000 0.500000
vt 0.875000 0.750000
vt 0.625000 0.750000
vt 0.125000 0.500000
vt 0.375000 0.500000
vt 0.375000 0.750000
vt 0.125000 0.750000
vt 0.625000 1.000000
vt 0.375000 1.000000
vt 0.375000 0.250000
vt 0.625000 0.250000
vt 0.375000 0.000000
vt 0.625000 0.000000
vt 0.625000 0.500000
vt 0.875000 0.500000
vt 0.875000 0.750000
vt 0.625000 0.750000
vt 0.125000 0.500000
vt 0.375000 0.500000
vt 0.375000 0.750000
vt 0.125000 0.750000
vt 0.625000 1.000000
vt 0.375000 1.000000
vt 0.375000 0.250000
vt 0.625000 0.250000
vt 0.375000 0.000000
vt 0.625000 0.000000
vt 0.625000 0.500000
vt 0.875000 0.500000
vt 0.875000 0.750000
vt 0.625000 0.750000
vt 0.125000 0.500000
vt 0.375000 0.500000
vt 0.375000 0.750000
vt 0.125000 0.750000
vt 0.625000 1.000000
vt 0.375000 1.000000
vt 0.375000 0.250000
vt 0.625000 0.250000
vt 0.375000 0.000000
vt 0.625000 0.000000
vt 0.625000 0.500000
vt 0.875000 0.500000
vt 0.875000 0.750000
vt 0.625000 0.750000
vt 0.125000 0.500000
vt 0.375000 0.500000
vt 0.375000 0.750000
vt 0.125000 0.750000
vt 0.625000 1.000000
vt 0.375000 1.000000
vt 0.375000 0.250000
vt 0.625000 0.250000
vt 0.375000 0.000000
vt 0.625000 0.000000
vt 0.625000 0.500000
vt 0.875000 0.500000
vt 0.875000 0.750000
vt 0.625000 0.750000
vt 0.125000 0.500000
vt 0.375000 0.500000
vt 0.375000 0.750000
vt 0.125000 0.750000
vt 0.625000 1.000000
vt 0.375000 1.000000
vt 0.375000 0.250000
vt 0.625000 0.250000
vt 0.375000 0.000000
vt 0.625000 0.000000
vt 0.375000 0.000000
vt 0.625000 0.000000
vt 0.625000 0.250000
vt 0.375000 0.250000
vt 0.625000 0.500000
vt 0.375000 0.500000
vt 0.625000 0.750000
vt 0.375000 0.750000
vt 0.625000 1.000000
vt 0.375000 1.000000
vt 0.125000 0.500000
vt 0.125000 0.750000
vt 0.875000 0.500000
vt 0.875000 0.750000
vt 0.375000 0.000000
vt 0.625000 0.000000
vt 0.625000 0.250000
vt 0.375000 0.250000
vt 0.625000 0.500000
vt 0.375000 0.500000
vt 0.625000 0.750000
vt 0.375000 0.750000
vt 0.625000 1.000000
vt 0.375000 1.000000
vt 0.125000 0.500000
vt 0.125000 0.750000
vt 0.875000 0.500000
vt 0.875000 0.750000
vt 0.375000 0.000000
vt 0.625000 0.000000
vt 0.625000 0.250000
vt 0.375000 0.250000
vt 0.625000 0.500000
vt 0.375000 0.500000
vt 0.625000 0.750000
vt 0.375000 0.750000
vt 0.625000 1.000000
vt 0.375000 1.000000
vt 0.125000 0.500000
vt 0.125000 0.750000
vt 0.875000 0.500000
vt 0.875000 0.750000
vt 0.375000 0.000000
vt 0.625000 0.000000
vt 0.625000 0.250000
vt 0.375000 0.250000
vt 0.625000 0.500000
vt 0.375000 0.500000
vt 0.625000 0.750000
vt 0.375000 0.750000
vt 0.625000 1.000000
vt 0.375000 1.000000
vt 0.125000 0.500000
vt 0.125000 0.750000
vt 0.875000 0.500000
vt 0.875000 0.750000
vn -1.0000 0.0000 0.0000
vn 0.0000 0.0000 -1.0000
vn 1.0000 0.0000 0.0000
vn 0.0000 0.0000 1.0000
vn 0.0000 -1.0000 0.0000
vn 0.0000 1.0000 0.0000
vn 0.0000 -1.0000 0.0067
vn 0.0000 1.0000 -0.0067
vn 0.0000 0.0055 1.0000
vn 0.0000 -0.0055 -1.0000
vn 0.0135 0.0000 -0.9999
vn 0.9999 0.0000 0.0135
vn -0.0135 0.0000 0.9999
vn -0.9999 0.0000 -0.0135
usemtl Material.009
s off
f 1/1/1 2/2/1 4/3/1 3/4/1
f 3/4/2 4/3/2 8/5/2 7/6/2
f 7/6/3 8/5/3 6/7/3 5/8/3
f 5/8/4 6/7/4 2/9/4 1/10/4
f 3/11/5 7/6/5 5/8/5 1/12/5
f 8/5/6 4/13/6 2/14/6 6/7/6
usemtl Material.027
f 9/15/1 10/16/1 12/17/1 11/18/1
f 11/18/4 12/17/4 16/19/4 15/20/4
f 15/20/3 16/19/3 14/21/3 13/22/3
f 13/22/2 14/21/2 10/23/2 9/24/2
f 11/25/6 15/20/6 13/22/6 9/26/6
f 16/19/5 12/27/5 10/28/5 14/21/5
usemtl Material.034
f 17/29/3 18/30/3 20/31/3 19/32/3
f 19/32/2 20/31/2 24/33/2 23/34/2
f 23/34/1 24/33/1 22/35/1 21/36/1
f 21/36/4 22/35/4 18/37/4 17/38/4
f 19/39/6 23/34/6 21/36/6 17/40/6
f 24/33/5 20/41/5 18/42/5 22/35/5
usemtl Material.010
f 25/43/1 26/44/1 28/45/1 27/46/1
f 27/46/2 28/45/2 32/47/2 31/48/2
f 31/48/3 32/47/3 30/49/3 29/50/3
f 29/50/4 30/49/4 26/51/4 25/52/4
f 27/53/5 31/48/5 29/50/5 25/54/5
f 32/47/6 28/55/6 26/56/6 30/49/6
usemtl Material.023
f 33/57/1 34/58/1 36/59/1 35/60/1
f 35/60/7 36/59/7 40/61/7 39/62/7
f 39/62/3 40/61/3 38/63/3 37/64/3
f 37/64/8 38/63/8 34/65/8 33/66/8
f 35/67/9 39/62/9 37/64/9 33/68/9
f 40/61/10 36/69/10 34/70/10 38/63/10
usemtl Material.019
f 41/71/1 42/72/1 44/73/1 43/74/1
f 43/74/2 44/73/2 48/75/2 47/76/2
f 47/76/3 48/75/3 46/77/3 45/78/3
f 45/78/4 46/77/4 42/79/4 41/80/4
f 43/81/5 47/76/5 45/78/5 41/82/5
f 48/75/6 44/83/6 42/84/6 46/77/6
usemtl Material.020
f 105/85/6 109/86/6 111/87/6 107/88/6
f 110/89/5 106/90/5 108/91/5 112/92/5
f 108/91/4 107/88/4 111/93/4 112/94/4
f 106/90/3 105/85/3 107/88/3 108/91/3
f 110/95/2 109/96/2 105/85/2 106/90/2
f 112/97/1 111/98/1 109/96/1 110/95/1
usemtl Material.022
f 97/99/6 101/100/6 103/101/6 99/102/6
f 102/103/5 98/104/5 100/105/5 104/106/5
f 100/105/2 99/102/2 103/107/2 104/108/2
f 98/104/1 97/99/1 99/102/1 100/105/1
f 102/109/4 101/110/4 97/99/4 98/104/4
f 104/111/3 103/112/3 101/110/3 102/109/3
usemtl Material.008
f 73/113/2 77/114/2 79/115/2 75/116/2
f 78/117/4 74/118/4 76/119/4 80/120/4
f 76/119/6 75/116/6 79/121/6 80/122/6
f 74/118/3 73/113/3 75/116/3 76/119/3
f 78/123/5 77/124/5 73/113/5 74/118/5
f 80/125/1 79/126/1 77/124/1 78/123/1
f 89/127/6 93/128/6 95/129/6 91/130/6
f 94/131/5 90/132/5 92/133/5 96/134/5
f 92/133/4 91/130/4 95/135/4 96/136/4
f 90/132/3 89/127/3 91/130/3 92/133/3
f 94/137/2 93/138/2 89/127/2 90/132/2
f 96/139/1 95/140/1 93/138/1 94/137/1
usemtl Material.016
f 81/141/6 85/142/6 87/143/6 83/144/6
f 86/145/5 82/146/5 84/147/5 88/148/5
f 84/147/2 83/144/2 87/149/2 88/150/2
f 82/146/1 81/141/1 83/144/1 84/147/1
f 86/151/4 85/152/4 81/141/4 82/146/4
f 88/153/3 87/154/3 85/152/3 86/151/3
usemtl Material.035
f 65/155/2 69/156/2 71/157/2 67/158/2
f 70/159/4 66/160/4 68/161/4 72/162/4
f 68/161/6 67/158/6 71/163/6 72/164/6
f 66/160/3 65/155/3 67/158/3 68/161/3
f 70/165/5 69/166/5 65/155/5 66/160/5
f 72/167/1 71/168/1 69/166/1 70/165/1
usemtl Material.036
f 57/169/2 61/170/2 63/171/2 59/172/2
f 62/173/4 58/174/4 60/175/4 64/176/4
f 60/175/6 59/172/6 63/177/6 64/178/6
f 58/174/3 57/169/3 59/172/3 60/175/3
f 62/179/5 61/180/5 57/169/5 58/174/5
f 64/181/1 63/182/1 61/180/1 62/179/1
usemtl Material.037
f 49/183/2 53/184/2 55/185/2 51/186/2
f 54/187/4 50/188/4 52/189/4 56/190/4
f 52/189/6 51/186/6 55/191/6 56/192/6
f 50/188/3 49/183/3 51/186/3 52/189/3
f 54/193/5 53/194/5 49/183/5 50/188/5
f 56/195/1 55/196/1 53/194/1 54/193/1
usemtl Material.024
f 113/197/3 114/198/3 116/199/3 115/200/3
f 115/200/4 116/199/4 120/201/4 119/202/4
f 119/202/1 120/201/1 118/203/1 117/204/1
f 117/204/2 118/203/2 114/205/2 113/206/2
f 115/207/5 119/202/5 117/204/5 113/208/5
f 120/201/6 116/209/6 114/210/6 118/203/6
usemtl Material.025
f 121/211/3 122/212/3 124/213/3 123/214/3
f 123/214/4 124/213/4 128/215/4 127/216/4
f 127/216/1 128/215/1 126/217/1 125/218/1
f 125/218/2 126/217/2 122/219/2 121/220/2
f 123/221/5 127/216/5 125/218/5 121/222/5
f 128/215/6 124/223/6 122/224/6 126/217/6
usemtl Material.030
f 129/225/11 130/226/11 132/227/11 131/228/11
f 131/228/12 132/227/12 136/229/12 135/230/12
f 135/230/13 136/229/13 134/231/13 133/232/13
f 133/232/14 134/231/14 130/233/14 129/234/14
f 131/235/5 135/230/5 133/232/5 129/236/5
f 136/229/6 132/237/6 130/238/6 134/231/6
usemtl Material.032
f 137/239/1 138/240/1 140/241/1 139/242/1
f 139/242/2 140/241/2 144/243/2 143/244/2
f 143/244/3 144/243/3 142/245/3 141/246/3
f 141/246/4 142/245/4 138/247/4 137/248/4
f 139/249/5 143/244/5 141/246/5 137/250/5
f 144/243/6 140/251/6 138/252/6 142/245/6
